<mxfile host="app.diagrams.net" agent="Mozilla/5.0 (Windows NT 10.0; Win64; x64) AppleWebKit/537.36 (KHTML, like Gecko) Chrome/138.0.0.0 Safari/537.36" version="28.0.7">
  <diagram name="Page-1" id="KP9Qe9BMzsrLLqF6L83L">
    <mxGraphModel dx="1554" dy="990" grid="1" gridSize="10" guides="1" tooltips="1" connect="1" arrows="1" fold="1" page="1" pageScale="1" pageWidth="850" pageHeight="1100" math="0" shadow="0">
      <root>
        <mxCell id="0" />
        <mxCell id="1" parent="0" />
        <mxCell id="NbrS7Sn8ZoOvZ7-YIea--5" style="edgeStyle=orthogonalEdgeStyle;rounded=0;orthogonalLoop=1;jettySize=auto;html=1;entryX=0.5;entryY=0;entryDx=0;entryDy=0;" edge="1" parent="1" source="NbrS7Sn8ZoOvZ7-YIea--1" target="NbrS7Sn8ZoOvZ7-YIea--4">
          <mxGeometry relative="1" as="geometry" />
        </mxCell>
        <mxCell id="NbrS7Sn8ZoOvZ7-YIea--1" value="Start" style="rhombus;whiteSpace=wrap;html=1;" vertex="1" parent="1">
          <mxGeometry x="330" y="10" width="140" height="80" as="geometry" />
        </mxCell>
        <mxCell id="NbrS7Sn8ZoOvZ7-YIea--3" value="End" style="rhombus;whiteSpace=wrap;html=1;" vertex="1" parent="1">
          <mxGeometry x="330" y="800" width="140" height="80" as="geometry" />
        </mxCell>
        <mxCell id="NbrS7Sn8ZoOvZ7-YIea--7" style="edgeStyle=orthogonalEdgeStyle;rounded=0;orthogonalLoop=1;jettySize=auto;html=1;entryX=0.5;entryY=0;entryDx=0;entryDy=0;" edge="1" parent="1" source="NbrS7Sn8ZoOvZ7-YIea--4" target="NbrS7Sn8ZoOvZ7-YIea--6">
          <mxGeometry relative="1" as="geometry" />
        </mxCell>
        <mxCell id="NbrS7Sn8ZoOvZ7-YIea--4" value="Login User" style="rounded=0;whiteSpace=wrap;html=1;" vertex="1" parent="1">
          <mxGeometry x="340" y="140" width="120" height="60" as="geometry" />
        </mxCell>
        <mxCell id="NbrS7Sn8ZoOvZ7-YIea--9" style="edgeStyle=orthogonalEdgeStyle;rounded=0;orthogonalLoop=1;jettySize=auto;html=1;entryX=0.5;entryY=0;entryDx=0;entryDy=0;" edge="1" parent="1" source="NbrS7Sn8ZoOvZ7-YIea--6" target="NbrS7Sn8ZoOvZ7-YIea--8">
          <mxGeometry relative="1" as="geometry" />
        </mxCell>
        <mxCell id="NbrS7Sn8ZoOvZ7-YIea--6" value="Pilih Fasilitas/ruangan" style="rounded=0;whiteSpace=wrap;html=1;" vertex="1" parent="1">
          <mxGeometry x="340" y="250" width="120" height="60" as="geometry" />
        </mxCell>
        <mxCell id="NbrS7Sn8ZoOvZ7-YIea--12" style="edgeStyle=orthogonalEdgeStyle;rounded=0;orthogonalLoop=1;jettySize=auto;html=1;entryX=0.5;entryY=0;entryDx=0;entryDy=0;" edge="1" parent="1" source="NbrS7Sn8ZoOvZ7-YIea--8" target="NbrS7Sn8ZoOvZ7-YIea--11">
          <mxGeometry relative="1" as="geometry" />
        </mxCell>
        <mxCell id="NbrS7Sn8ZoOvZ7-YIea--8" value="Tanggal dan durasi peminjaman" style="shape=parallelogram;perimeter=parallelogramPerimeter;whiteSpace=wrap;html=1;fixedSize=1;" vertex="1" parent="1">
          <mxGeometry x="300" y="370" width="200" height="60" as="geometry" />
        </mxCell>
        <mxCell id="NbrS7Sn8ZoOvZ7-YIea--17" style="edgeStyle=orthogonalEdgeStyle;rounded=0;orthogonalLoop=1;jettySize=auto;html=1;entryX=0.5;entryY=0;entryDx=0;entryDy=0;" edge="1" parent="1" source="NbrS7Sn8ZoOvZ7-YIea--11" target="NbrS7Sn8ZoOvZ7-YIea--13">
          <mxGeometry relative="1" as="geometry" />
        </mxCell>
        <mxCell id="NbrS7Sn8ZoOvZ7-YIea--20" style="edgeStyle=orthogonalEdgeStyle;rounded=0;orthogonalLoop=1;jettySize=auto;html=1;exitX=1;exitY=0.5;exitDx=0;exitDy=0;entryX=0;entryY=0;entryDx=0;entryDy=0;" edge="1" parent="1" source="NbrS7Sn8ZoOvZ7-YIea--11" target="NbrS7Sn8ZoOvZ7-YIea--14">
          <mxGeometry relative="1" as="geometry" />
        </mxCell>
        <mxCell id="NbrS7Sn8ZoOvZ7-YIea--11" value="Jadwal Bentrok?" style="rhombus;whiteSpace=wrap;html=1;" vertex="1" parent="1">
          <mxGeometry x="330" y="480" width="140" height="80" as="geometry" />
        </mxCell>
        <mxCell id="NbrS7Sn8ZoOvZ7-YIea--18" style="edgeStyle=orthogonalEdgeStyle;rounded=0;orthogonalLoop=1;jettySize=auto;html=1;entryX=0.5;entryY=0;entryDx=0;entryDy=0;" edge="1" parent="1" source="NbrS7Sn8ZoOvZ7-YIea--13" target="NbrS7Sn8ZoOvZ7-YIea--15">
          <mxGeometry relative="1" as="geometry" />
        </mxCell>
        <mxCell id="NbrS7Sn8ZoOvZ7-YIea--13" value="Simpan data peminjaman" style="shape=parallelogram;perimeter=parallelogramPerimeter;whiteSpace=wrap;html=1;fixedSize=1;" vertex="1" parent="1">
          <mxGeometry x="300" y="600" width="200" height="60" as="geometry" />
        </mxCell>
        <mxCell id="NbrS7Sn8ZoOvZ7-YIea--14" value="Pesan&quot;Ruangan/Fasilitas telah dipinjam&quot;" style="shape=parallelogram;perimeter=parallelogramPerimeter;whiteSpace=wrap;html=1;fixedSize=1;" vertex="1" parent="1">
          <mxGeometry x="530" y="510" width="200" height="60" as="geometry" />
        </mxCell>
        <mxCell id="NbrS7Sn8ZoOvZ7-YIea--16" style="edgeStyle=orthogonalEdgeStyle;rounded=0;orthogonalLoop=1;jettySize=auto;html=1;entryX=0.5;entryY=0;entryDx=0;entryDy=0;" edge="1" parent="1" source="NbrS7Sn8ZoOvZ7-YIea--15" target="NbrS7Sn8ZoOvZ7-YIea--3">
          <mxGeometry relative="1" as="geometry" />
        </mxCell>
        <mxCell id="NbrS7Sn8ZoOvZ7-YIea--15" value="Tampilkan status dan informasi&amp;nbsp;" style="shape=parallelogram;perimeter=parallelogramPerimeter;whiteSpace=wrap;html=1;fixedSize=1;" vertex="1" parent="1">
          <mxGeometry x="300" y="700" width="200" height="60" as="geometry" />
        </mxCell>
        <mxCell id="NbrS7Sn8ZoOvZ7-YIea--21" value="YA" style="text;html=1;align=center;verticalAlign=middle;whiteSpace=wrap;rounded=0;" vertex="1" parent="1">
          <mxGeometry x="490" y="480" width="60" height="30" as="geometry" />
        </mxCell>
        <mxCell id="NbrS7Sn8ZoOvZ7-YIea--22" value="TIDAK" style="text;html=1;align=center;verticalAlign=middle;whiteSpace=wrap;rounded=0;" vertex="1" parent="1">
          <mxGeometry x="410" y="560" width="60" height="30" as="geometry" />
        </mxCell>
      </root>
    </mxGraphModel>
  </diagram>
</mxfile>
